<svg xmlns="http://www.w3.org/2000/svg" width="254.971" height="137.409" viewBox="0 0 254.971 137.409">
  <g id="logo_blanco" transform="translate(-126.609 -294.783)">
    <path id="Trazado_3074" data-name="Trazado 3074" d="M436.238,373.327a17.384,17.384,0,0,0-2.452.581,21.655,21.655,0,0,0-2.777,1.266v2.252a48.467,48.467,0,0,1-.593,5.151,21.92,21.92,0,0,0,2.494-3.318c.957-1.659,3.329-5.932,3.329-5.932m-7.253,3.034a48.417,48.417,0,0,0-9.465,5.744c-5.944,4.355-9.263,13.86-9.263,13.86a40.638,40.638,0,0,0,11.556-5.149c6.256-3.964,7.172-14.454,7.172-14.454M424.123,440.7h-7.729s-11.862-11.154-11.66-31.685c.252-25.726,24.105-35.168,24.105-35.168s.228-5.9-3.826-9.824a36.1,36.1,0,0,0-8.654-6.087,13.914,13.914,0,0,1,11.791,7.345c2.731,5.233,2.692,7.743,2.692,7.743a16.113,16.113,0,0,1,3.456-1.258c2.22-.587,2.612-.659,2.612-.659s7.11-21.4-5.057-35.979-22.3-17.235-32.822-17.108c-9.622.114-10.351,1.279-10.4,1.475l.106-.715a32.008,32.008,0,0,1,18.028-2.154c10.012,1.772,31.852,8.15,35.994,40.3a32.7,32.7,0,0,1-1.186,13.948s8.411-1.022,15.128,1.387c4.5,1.613,9.856,5.273,12.9,7.513,1.2.67,1.926,1.106,1.926,1.106l.514.755s-.939-.759-2.44-1.86c-3.673-2.056-11.767-6.306-16.832-6.879a77.228,77.228,0,0,0-11.533-.506s-3.041,12.04-13.305,19.136a71.811,71.811,0,0,1-19.391,9.632s-1.9,7.984-.507,14.193a71.6,71.6,0,0,0,3.168,10.52s-.862-19.83,13.974-27.247c11.572-5.787,22.414.6,22.414.6l-1.722-.106s-2.875-1.964-11.281-1.4-17.929,6.989-20.276,17.036-1.529,7.678-1.529,7.678,4.081-7.417,11.407-7.325c7.11.091,10.4,7.958,10.4,7.958s-4.715-6.337-10.232-6.244-10.418,2.7-10.139,10.139,9.911,13.747,9.911,13.747" transform="translate(-104.227 -8.505)" fill="#fff" fill-rule="evenodd"/>
    <path id="Trazado_3075" data-name="Trazado 3075" d="M409.951,373.918a1.869,1.869,0,1,0,1.87-1.87,1.868,1.868,0,0,0-1.87,1.87m1.774-10.52a11.872,11.872,0,0,0-.856,3.961,9.119,9.119,0,0,0,.856,3.961,9.536,9.536,0,0,0,.981-4.278,10.743,10.743,0,0,0-.981-3.644m0,13.244a11.87,11.87,0,0,0-.856,3.96,9.122,9.122,0,0,0,.856,3.962,9.541,9.541,0,0,0,.981-4.278,10.737,10.737,0,0,0-.981-3.644m-10.513-2.592a11.882,11.882,0,0,0,3.96.856,9.149,9.149,0,0,0,3.961-.856,9.531,9.531,0,0,0-4.276-.983,10.727,10.727,0,0,0-3.644.983m13.244,0a11.877,11.877,0,0,0,3.96.856,9.146,9.146,0,0,0,3.96-.856,9.526,9.526,0,0,0-4.276-.983,10.721,10.721,0,0,0-3.643.983m-9.989,7.967a11.88,11.88,0,0,0,3.245-2.427,9.139,9.139,0,0,0,1.952-3.55,9.513,9.513,0,0,0-3.546,2.583,10.738,10.738,0,0,0-1.65,3.394m9.493-10.347a11.85,11.85,0,0,0,3.242-2.427,9.162,9.162,0,0,0,1.954-3.551,9.542,9.542,0,0,0-3.549,2.584,10.748,10.748,0,0,0-1.648,3.394m-10.406-4.888a11.912,11.912,0,0,0,2.484,3.2,9.136,9.136,0,0,0,3.584,1.89,9.527,9.527,0,0,0-2.645-3.5,10.748,10.748,0,0,0-3.423-1.589m10.289,9.4a11.859,11.859,0,0,0,2.484,3.2,9.124,9.124,0,0,0,3.584,1.89,9.536,9.536,0,0,0-2.645-3.5,10.754,10.754,0,0,0-3.423-1.591m-6.586-12.051a11.9,11.9,0,0,0,.9,3.951,9.136,9.136,0,0,0,2.449,3.227,9.506,9.506,0,0,0-.917-4.291,10.754,10.754,0,0,0-2.431-2.888m5.695,12.541a11.88,11.88,0,0,0,.9,3.951,9.129,9.129,0,0,0,2.448,3.228,9.527,9.527,0,0,0-.916-4.292,10.775,10.775,0,0,0-2.43-2.887m-11.09,1.823a11.876,11.876,0,0,0,3.934-.967,9.137,9.137,0,0,0,3.185-2.5,9.541,9.541,0,0,0-4.275.991,10.748,10.748,0,0,0-2.845,2.48m12.781-5.816a11.879,11.879,0,0,0,3.933-.967,9.131,9.131,0,0,0,3.184-2.5,9.522,9.522,0,0,0-4.274.991,10.756,10.756,0,0,0-2.844,2.48M407.7,384.037a11.864,11.864,0,0,0,2.218-3.391,9.13,9.13,0,0,0,.621-4,9.528,9.528,0,0,0-2.45,3.64,10.737,10.737,0,0,0-.389,3.754m5.38-12.969a11.889,11.889,0,0,0,2.218-3.391,9.133,9.133,0,0,0,.622-4,9.54,9.54,0,0,0-2.451,3.64,10.783,10.783,0,0,0-.388,3.755m-11.65-1.017a11.877,11.877,0,0,0,3.43,2.158,9.118,9.118,0,0,0,4.013.55,9.53,9.53,0,0,0-3.682-2.385,10.744,10.744,0,0,0-3.761-.323m13.189,5.217a11.891,11.891,0,0,0,3.429,2.158,9.13,9.13,0,0,0,4.014.551,9.535,9.535,0,0,0-3.683-2.386,10.722,10.722,0,0,0-3.76-.323m-1.313,6.127s-.412,1.838-.633,3.136a4.207,4.207,0,0,1-.95,2.06s-1.079-2.6-1.3-3.263a13.8,13.8,0,0,1-.378-1.489,20.269,20.269,0,0,1-1.838,2.756c-.571.539-1.394,1.459-1.394,1.459s-.033-2.377-.033-3.106a13.657,13.657,0,0,1,.254-2s-2.378,1.87-2.884,2.154-1.362.634-1.362.634,1.206-2.724,1.49-3.39.792-1.553.792-1.553-1.933.381-3.074.539a10.8,10.8,0,0,1-2.313.031s2.219-2.217,2.947-2.788a13.462,13.462,0,0,1,1.68-1.077s-2.6-.413-3.391-.634a7.343,7.343,0,0,1-1.8-.95s2.09-.824,3.072-1.077,1.839-.444,1.839-.444a15.126,15.126,0,0,1-2.25-1.109,20.36,20.36,0,0,1-2.091-2.122s2.915-.1,3.613,0a8.14,8.14,0,0,1,1.616.475,13.577,13.577,0,0,1-1.9-2.219c-.443-.824-1.109-2.5-1.109-2.5a31.157,31.157,0,0,1,3.549,1.649c.856.57,2.027,1.425,2.027,1.425s-.634-2.25-.856-3.169-.412-2.851-.412-2.851,2.755,2.533,2.947,2.851,1.045,1.489,1.045,1.489.317-1.71.634-2.82a18.253,18.253,0,0,1,.918-2.377A27.079,27.079,0,0,1,412.96,364a20.257,20.257,0,0,1,.317,2.313,31.429,31.429,0,0,1,1.742-2.915,13.885,13.885,0,0,1,1.585-1.711,24.029,24.029,0,0,1,0,2.726,14.7,14.7,0,0,0-.064,1.774s1.332-.855,2.282-1.393a11.617,11.617,0,0,1,1.932-.856s-1.14,2.217-1.647,3.359a14.944,14.944,0,0,1-1.331,2.282,5.254,5.254,0,0,1,2.756-.983c1.586-.064,2.947-.126,2.947-.126a9.682,9.682,0,0,1-2.5,2.788,14.7,14.7,0,0,1-2.377,1.236,36.291,36.291,0,0,1,3.58.634c1.141.317,2.5.824,2.5.824s-2.535,1.2-3.517,1.488-1.141.222-1.141.222a13.3,13.3,0,0,1,2.313,1.648,7.826,7.826,0,0,1,1.236,1.616s-1.837.031-2.788-.032a4.4,4.4,0,0,1-1.648-.443s.792,1.3,1.236,2.186,1.046,1.964,1.046,1.964-2.345-.92-3.265-1.3-1.68-.728-1.68-.728a9.4,9.4,0,0,1,.571,2.883,15.835,15.835,0,0,0-.031,2.091,32.447,32.447,0,0,1-2.472-2.44c-.6-.761-1.236-1.712-1.236-1.712" transform="translate(-108.399 -26.386)" fill="#fff" fill-rule="evenodd"/>
    <path id="Trazado_3076" data-name="Trazado 3076" d="M487.924,452.143a.94.94,0,1,0,.94-.94.94.94,0,0,0-.94.94m.892-5.289a5.941,5.941,0,0,0-.431,1.99,4.6,4.6,0,0,0,.431,1.991,4.781,4.781,0,0,0,.494-2.149,5.406,5.406,0,0,0-.494-1.832m0,6.658a5.955,5.955,0,0,0-.431,1.992,4.6,4.6,0,0,0,.431,1.99,4.785,4.785,0,0,0,.494-2.15,5.413,5.413,0,0,0-.494-1.833m-5.285-1.3a5.991,5.991,0,0,0,1.99.431,4.611,4.611,0,0,0,1.991-.431,4.789,4.789,0,0,0-2.15-.494,5.409,5.409,0,0,0-1.831.494m6.657,0a6.005,6.005,0,0,0,1.992.431,4.617,4.617,0,0,0,1.991-.431,4.793,4.793,0,0,0-2.151-.494,5.423,5.423,0,0,0-1.833.494m-5.021,4.005a6,6,0,0,0,1.631-1.221,4.572,4.572,0,0,0,.981-1.784,4.8,4.8,0,0,0-1.783,1.3,5.4,5.4,0,0,0-.829,1.706m4.771-5.2a5.964,5.964,0,0,0,1.631-1.221,4.587,4.587,0,0,0,.982-1.784,4.785,4.785,0,0,0-1.783,1.3,5.385,5.385,0,0,0-.83,1.707m-5.231-2.458a5.968,5.968,0,0,0,1.249,1.608,4.6,4.6,0,0,0,1.8.951,4.79,4.79,0,0,0-1.33-1.76,5.391,5.391,0,0,0-1.721-.8m5.174,4.728a5.965,5.965,0,0,0,1.249,1.61,4.6,4.6,0,0,0,1.8.951,4.792,4.792,0,0,0-1.33-1.761,5.412,5.412,0,0,0-1.721-.8m-3.311-6.059a5.954,5.954,0,0,0,.451,1.987,4.593,4.593,0,0,0,1.232,1.623,4.78,4.78,0,0,0-.461-2.158,5.385,5.385,0,0,0-1.221-1.452m2.863,6.306a5.977,5.977,0,0,0,.452,1.986,4.6,4.6,0,0,0,1.23,1.623,4.777,4.777,0,0,0-.461-2.157,5.4,5.4,0,0,0-1.221-1.451m-5.577.917a5.989,5.989,0,0,0,1.979-.486,4.6,4.6,0,0,0,1.6-1.26,4.807,4.807,0,0,0-2.15.5,5.423,5.423,0,0,0-1.431,1.248m6.426-2.924a5.993,5.993,0,0,0,1.98-.486,4.589,4.589,0,0,0,1.6-1.26,4.788,4.788,0,0,0-2.149.5,5.405,5.405,0,0,0-1.431,1.247m-3.488,5.709a5.965,5.965,0,0,0,1.115-1.706,4.6,4.6,0,0,0,.313-2.013,4.778,4.778,0,0,0-1.232,1.83,5.4,5.4,0,0,0-.2,1.888m2.7-6.521A5.993,5.993,0,0,0,490.614,449a4.569,4.569,0,0,0,.311-2.012,4.8,4.8,0,0,0-1.231,1.83,5.405,5.405,0,0,0-.195,1.889m-5.858-.512a5.968,5.968,0,0,0,1.724,1.085,4.589,4.589,0,0,0,2.019.278,4.792,4.792,0,0,0-1.851-1.2,5.4,5.4,0,0,0-1.891-.163m6.632,2.623A5.955,5.955,0,0,0,492,453.907a4.594,4.594,0,0,0,2.017.276,4.8,4.8,0,0,0-1.851-1.2,5.4,5.4,0,0,0-1.89-.163m-.66,3.081s-.207.923-.319,1.577a2.1,2.1,0,0,1-.478,1.035s-.542-1.306-.653-1.64a6.923,6.923,0,0,1-.192-.749,10.107,10.107,0,0,1-.923,1.386c-.287.271-.7.732-.7.732s-.016-1.194-.016-1.561a6.88,6.88,0,0,1,.127-1s-1.195.94-1.45,1.083-.685.319-.685.319.607-1.371.75-1.7.4-.781.4-.781-.973.19-1.545.271a5.464,5.464,0,0,1-1.163.015s1.115-1.115,1.482-1.4a6.9,6.9,0,0,1,.844-.542s-1.307-.207-1.7-.318a3.656,3.656,0,0,1-.909-.478s1.051-.414,1.545-.542.924-.223.924-.223a7.572,7.572,0,0,1-1.131-.558,10.091,10.091,0,0,1-1.051-1.068s1.466-.047,1.816,0a4.086,4.086,0,0,1,.812.239,6.854,6.854,0,0,1-.955-1.115c-.223-.414-.558-1.258-.558-1.258a15.774,15.774,0,0,1,1.784.828c.43.287,1.02.717,1.02.717s-.32-1.131-.431-1.593-.208-1.434-.208-1.434,1.386,1.274,1.482,1.434.526.749.526.749.159-.86.319-1.418a9.248,9.248,0,0,1,.461-1.194,13.4,13.4,0,0,1,.606,1.449,10.161,10.161,0,0,1,.159,1.163,15.564,15.564,0,0,1,.876-1.465,6.96,6.96,0,0,1,.8-.86,11.965,11.965,0,0,1,0,1.368,7.69,7.69,0,0,0-.033.893s.671-.431,1.147-.7a5.935,5.935,0,0,1,.973-.431s-.575,1.115-.829,1.69a7.514,7.514,0,0,1-.669,1.147,2.639,2.639,0,0,1,1.386-.494c.8-.031,1.482-.063,1.482-.063a4.87,4.87,0,0,1-1.259,1.4,7.336,7.336,0,0,1-1.194.621,18.242,18.242,0,0,1,1.8.318c.575.16,1.259.415,1.259.415s-1.275.605-1.768.749-.574.11-.574.11a6.632,6.632,0,0,1,1.163.83,3.88,3.88,0,0,1,.622.812s-.924.016-1.4-.016a2.205,2.205,0,0,1-.829-.223s.4.653.621,1.1.526.988.526.988-1.179-.462-1.641-.653-.845-.366-.845-.366a4.693,4.693,0,0,1,.287,1.449,7.954,7.954,0,0,0-.016,1.052,16.5,16.5,0,0,1-1.242-1.226c-.3-.382-.621-.86-.621-.86" transform="translate(-141.559 -60.036)" fill="#fff" fill-rule="evenodd"/>
    <path id="Trazado_3077" data-name="Trazado 3077" d="M437.5,494.726a.6.6,0,1,0,.6-.6.6.6,0,0,0-.6.6m.57-3.389a3.829,3.829,0,0,0-.275,1.275,2.949,2.949,0,0,0,.275,1.276,3.075,3.075,0,0,0,.317-1.378,3.464,3.464,0,0,0-.317-1.174m0,4.267a3.835,3.835,0,0,0-.275,1.276,2.948,2.948,0,0,0,.275,1.275,3.074,3.074,0,0,0,.317-1.377,3.454,3.454,0,0,0-.317-1.174m-3.386-.836a3.83,3.83,0,0,0,1.276.275,2.937,2.937,0,0,0,1.276-.275,3.063,3.063,0,0,0-1.378-.316,3.436,3.436,0,0,0-1.174.316m4.265,0a3.841,3.841,0,0,0,1.276.275,2.938,2.938,0,0,0,1.277-.275,3.064,3.064,0,0,0-1.379-.316,3.447,3.447,0,0,0-1.174.316m-3.216,2.567a3.839,3.839,0,0,0,1.045-.783,2.946,2.946,0,0,0,.628-1.143,3.07,3.07,0,0,0-1.143.832,3.444,3.444,0,0,0-.53,1.094M438.793,494a3.844,3.844,0,0,0,1.045-.782,2.943,2.943,0,0,0,.629-1.145,3.08,3.08,0,0,0-1.143.833,3.465,3.465,0,0,0-.531,1.094m-3.352-1.576a3.847,3.847,0,0,0,.8,1.032,2.933,2.933,0,0,0,1.155.609,3.071,3.071,0,0,0-.852-1.128,3.5,3.5,0,0,0-1.1-.513m3.315,3.03a3.817,3.817,0,0,0,.8,1.031,2.94,2.94,0,0,0,1.154.609,3.071,3.071,0,0,0-.853-1.128,3.453,3.453,0,0,0-1.1-.513m-2.121-3.883a3.807,3.807,0,0,0,.29,1.273,2.933,2.933,0,0,0,.788,1.039,3.062,3.062,0,0,0-.294-1.382,3.47,3.47,0,0,0-.783-.93m1.834,4.04a3.8,3.8,0,0,0,.29,1.272,2.946,2.946,0,0,0,.789,1.041,3.08,3.08,0,0,0-.3-1.383,3.469,3.469,0,0,0-.782-.93m-3.573.587a3.816,3.816,0,0,0,1.268-.311,2.945,2.945,0,0,0,1.027-.806,3.066,3.066,0,0,0-1.377.319,3.469,3.469,0,0,0-.917.8m4.118-1.873a3.807,3.807,0,0,0,1.267-.312,2.941,2.941,0,0,0,1.026-.806,3.065,3.065,0,0,0-1.377.319,3.461,3.461,0,0,0-.916.8m-2.236,3.658a3.841,3.841,0,0,0,.715-1.093,2.956,2.956,0,0,0,.2-1.289,3.074,3.074,0,0,0-.79,1.173,3.447,3.447,0,0,0-.125,1.209m1.734-4.178a3.848,3.848,0,0,0,.714-1.093,2.961,2.961,0,0,0,.2-1.289,3.067,3.067,0,0,0-.791,1.174,3.439,3.439,0,0,0-.124,1.209m-3.753-.328a3.807,3.807,0,0,0,1.1.7,2.942,2.942,0,0,0,1.292.178,3.065,3.065,0,0,0-1.186-.769,3.465,3.465,0,0,0-1.21-.1m4.248,1.681a3.829,3.829,0,0,0,1.1.695,2.95,2.95,0,0,0,1.293.178,3.076,3.076,0,0,0-1.186-.77,3.487,3.487,0,0,0-1.212-.1m-.423,1.973s-.132.593-.2,1.011a1.357,1.357,0,0,1-.307.663s-.346-.837-.419-1.052a4.436,4.436,0,0,1-.122-.479,6.365,6.365,0,0,1-.593.887c-.184.174-.448.47-.448.47s-.011-.765-.011-1a4.372,4.372,0,0,1,.082-.642s-.766.6-.929.694a4.709,4.709,0,0,1-.439.2s.389-.877.481-1.092.255-.5.255-.5-.623.124-.99.173a3.524,3.524,0,0,1-.746.01s.715-.714.95-.9a4.337,4.337,0,0,1,.541-.348s-.838-.132-1.092-.2a2.367,2.367,0,0,1-.583-.306s.675-.264.991-.347.592-.142.592-.142a4.832,4.832,0,0,1-.724-.357,6.4,6.4,0,0,1-.674-.684s.94-.031,1.164,0a2.639,2.639,0,0,1,.52.153,4.352,4.352,0,0,1-.612-.715c-.143-.264-.358-.806-.358-.806a10.1,10.1,0,0,1,1.143.531c.277.184.654.459.654.459s-.2-.724-.277-1.021-.132-.918-.132-.918.888.817.95.918.337.48.337.48.1-.551.2-.909a6.011,6.011,0,0,1,.3-.766,8.545,8.545,0,0,1,.388.929,6.4,6.4,0,0,1,.1.746,10.134,10.134,0,0,1,.562-.939,4.5,4.5,0,0,1,.51-.552,7.723,7.723,0,0,1,0,.879,4.538,4.538,0,0,0-.02.571s.429-.275.735-.449a3.755,3.755,0,0,1,.622-.276s-.367.715-.531,1.082a4.7,4.7,0,0,1-.429.735,1.69,1.69,0,0,1,.889-.317c.51-.021.948-.042.948-.042a3.125,3.125,0,0,1-.806.9,4.725,4.725,0,0,1-.765.4s.785.1,1.152.2.807.266.807.266-.818.387-1.135.479-.367.072-.367.072a4.263,4.263,0,0,1,.745.53,2.5,2.5,0,0,1,.4.52s-.591.011-.9-.01a1.409,1.409,0,0,1-.531-.142s.255.419.4.7.338.633.338.633-.756-.3-1.051-.418-.541-.235-.541-.235a3.026,3.026,0,0,1,.184.929,4.819,4.819,0,0,0-.01.674,10.54,10.54,0,0,1-.8-.786c-.195-.246-.4-.552-.4-.552" transform="translate(-122.28 -77.894)" fill="#fff" fill-rule="evenodd"/>
    <path id="Trazado_3078" data-name="Trazado 3078" d="M403.537,300.226a.8.8,0,1,0,.794-.8.794.794,0,0,0-.794.8m.754-4.475a5.013,5.013,0,0,0-.363,1.686,3.868,3.868,0,0,0,.363,1.684,4.058,4.058,0,0,0,.419-1.819,4.607,4.607,0,0,0-.419-1.55m0,5.633a5,5,0,0,0-.363,1.684,3.865,3.865,0,0,0,.363,1.684,4.057,4.057,0,0,0,.419-1.819,4.6,4.6,0,0,0-.419-1.549m-4.471-1.1a5.035,5.035,0,0,0,1.684.364,3.876,3.876,0,0,0,1.684-.364,4.047,4.047,0,0,0-1.819-.418,4.6,4.6,0,0,0-1.549.418m5.632,0a5.039,5.039,0,0,0,1.684.364,3.877,3.877,0,0,0,1.684-.364,4.046,4.046,0,0,0-1.819-.418,4.592,4.592,0,0,0-1.55.418m-4.246,3.389a5.069,5.069,0,0,0,1.378-1.033,3.864,3.864,0,0,0,.83-1.509,4.06,4.06,0,0,0-1.509,1.1,4.59,4.59,0,0,0-.7,1.445m4.036-4.4a5.045,5.045,0,0,0,1.379-1.033,3.863,3.863,0,0,0,.83-1.509,4.042,4.042,0,0,0-1.507,1.1,4.564,4.564,0,0,0-.7,1.443m-4.425-2.078a5.064,5.064,0,0,0,1.056,1.36,3.9,3.9,0,0,0,1.524.8,4.046,4.046,0,0,0-1.124-1.49,4.552,4.552,0,0,0-1.456-.675m4.376,4a5.066,5.066,0,0,0,1.056,1.36,3.887,3.887,0,0,0,1.524.8,4.043,4.043,0,0,0-1.124-1.49,4.547,4.547,0,0,0-1.455-.675m-2.8-5.126a5.04,5.04,0,0,0,.382,1.68,3.883,3.883,0,0,0,1.041,1.372,4.055,4.055,0,0,0-.389-1.825,4.588,4.588,0,0,0-1.034-1.227m2.421,5.333a5.067,5.067,0,0,0,.382,1.68,3.89,3.89,0,0,0,1.042,1.372,4.063,4.063,0,0,0-.39-1.824,4.567,4.567,0,0,0-1.035-1.228m-4.716.775a5.059,5.059,0,0,0,1.674-.411,3.864,3.864,0,0,0,1.354-1.066,4.059,4.059,0,0,0-1.817.422,4.589,4.589,0,0,0-1.21,1.055m5.436-2.473a5.048,5.048,0,0,0,1.672-.411,3.877,3.877,0,0,0,1.354-1.066,4.059,4.059,0,0,0-1.817.422,4.537,4.537,0,0,0-1.209,1.054m-2.952,4.829a5.057,5.057,0,0,0,.943-1.442,3.891,3.891,0,0,0,.264-1.7,4.049,4.049,0,0,0-1.042,1.548,4.582,4.582,0,0,0-.165,1.6m2.287-5.516a5.039,5.039,0,0,0,.944-1.442,3.876,3.876,0,0,0,.264-1.7,4.067,4.067,0,0,0-1.043,1.548,4.583,4.583,0,0,0-.165,1.6m-4.954-.432a5.045,5.045,0,0,0,1.459.918,3.873,3.873,0,0,0,1.706.234,4.048,4.048,0,0,0-1.565-1.015,4.6,4.6,0,0,0-1.6-.137m5.608,2.219a5.038,5.038,0,0,0,1.458.918,3.881,3.881,0,0,0,1.707.234,4.05,4.05,0,0,0-1.566-1.015,4.584,4.584,0,0,0-1.6-.137m-.557,2.605s-.176.782-.27,1.335a1.787,1.787,0,0,1-.4.876s-.458-1.105-.553-1.388a5.881,5.881,0,0,1-.161-.633,8.711,8.711,0,0,1-.781,1.172c-.243.229-.593.619-.593.619s-.014-1.01-.014-1.321a5.775,5.775,0,0,1,.108-.848s-1.012.794-1.226.916-.581.27-.581.27.512-1.159.634-1.442.337-.661.337-.661-.822.162-1.307.23a4.658,4.658,0,0,1-.983.013s.943-.943,1.254-1.186a5.714,5.714,0,0,1,.714-.458s-1.106-.176-1.442-.27a3.1,3.1,0,0,1-.767-.4s.888-.351,1.306-.459.781-.189.781-.189a6.451,6.451,0,0,1-.956-.471,8.625,8.625,0,0,1-.89-.9s1.239-.04,1.537,0a3.443,3.443,0,0,1,.686.2,5.863,5.863,0,0,1-.809-.944c-.188-.349-.471-1.064-.471-1.064a13.252,13.252,0,0,1,1.509.7c.364.243.864.606.864.606s-.271-.956-.365-1.347-.175-1.212-.175-1.212,1.173,1.077,1.253,1.212.444.632.444.632.135-.726.27-1.2a7.669,7.669,0,0,1,.391-1.01,11.436,11.436,0,0,1,.51,1.226,8.327,8.327,0,0,1,.135.982,13.227,13.227,0,0,1,.743-1.239,5.867,5.867,0,0,1,.672-.727,10.253,10.253,0,0,1,0,1.159,6.026,6.026,0,0,0-.027.755s.566-.363.971-.594a5.035,5.035,0,0,1,.82-.363s-.484.943-.7,1.428a6.348,6.348,0,0,1-.566.971,2.229,2.229,0,0,1,1.172-.418c.673-.027,1.253-.054,1.253-.054a4.093,4.093,0,0,1-1.065,1.186,6.256,6.256,0,0,1-1.009.526s1.037.134,1.521.269,1.065.351,1.065.351-1.079.512-1.5.633-.485.094-.485.094a5.726,5.726,0,0,1,.985.7,3.347,3.347,0,0,1,.525.687s-.781.013-1.186-.014a1.883,1.883,0,0,1-.7-.188s.337.552.526.929.444.835.444.835-1-.39-1.387-.552-.715-.309-.715-.309a3.991,3.991,0,0,1,.243,1.226,6.844,6.844,0,0,0-.013.888,14.234,14.234,0,0,1-1.051-1.037c-.256-.323-.525-.728-.525-.728" transform="translate(-108.325)" fill="#fff" fill-rule="evenodd"/>
    <path id="Trazado_3079" data-name="Trazado 3079" d="M426.857,307.3a.4.4,0,1,0,.4-.4.4.4,0,0,0-.4.4m.382-2.276a2.573,2.573,0,0,0-.184.857,1.968,1.968,0,0,0,.184.856,2.045,2.045,0,0,0,.213-.924,2.307,2.307,0,0,0-.213-.788m0,2.865a2.572,2.572,0,0,0-.184.856,1.971,1.971,0,0,0,.184.857,2.048,2.048,0,0,0,.213-.925,2.3,2.3,0,0,0-.213-.788m-2.272-.561a2.556,2.556,0,0,0,.856.185,2,2,0,0,0,.857-.185,2.062,2.062,0,0,0-.926-.213,2.3,2.3,0,0,0-.787.213m2.863,0a2.562,2.562,0,0,0,.856.185,1.987,1.987,0,0,0,.856-.185,2.057,2.057,0,0,0-.924-.213,2.3,2.3,0,0,0-.788.213m-2.16,1.722a2.579,2.579,0,0,0,.7-.525,1.971,1.971,0,0,0,.422-.768,2.065,2.065,0,0,0-.767.559,2.306,2.306,0,0,0-.356.734m2.052-2.237a2.554,2.554,0,0,0,.7-.526,1.962,1.962,0,0,0,.423-.767,2.068,2.068,0,0,0-.767.559,2.339,2.339,0,0,0-.356.734m-2.251-1.058a2.575,2.575,0,0,0,.537.693,1.986,1.986,0,0,0,.775.409,2.055,2.055,0,0,0-.572-.758,2.327,2.327,0,0,0-.74-.345m2.226,2.034a2.548,2.548,0,0,0,.537.693,1.979,1.979,0,0,0,.775.409,2.066,2.066,0,0,0-.573-.758,2.336,2.336,0,0,0-.739-.344m-1.426-2.606a2.556,2.556,0,0,0,.194.855,1.967,1.967,0,0,0,.531.7,2.059,2.059,0,0,0-.2-.927,2.32,2.32,0,0,0-.526-.625m1.232,2.712a2.575,2.575,0,0,0,.193.855,1.983,1.983,0,0,0,.53.7,2.083,2.083,0,0,0-.2-.929,2.363,2.363,0,0,0-.526-.624m-2.4.394a2.548,2.548,0,0,0,.852-.209,1.982,1.982,0,0,0,.688-.542,2.064,2.064,0,0,0-.924.214,2.322,2.322,0,0,0-.615.537m2.765-1.258a2.576,2.576,0,0,0,.85-.21,1.969,1.969,0,0,0,.688-.541,2.053,2.053,0,0,0-.924.216,2.312,2.312,0,0,0-.614.535m-1.5,2.456a2.581,2.581,0,0,0,.48-.733,1.98,1.98,0,0,0,.133-.866,2.067,2.067,0,0,0-.529.786,2.351,2.351,0,0,0-.084.812m1.164-2.806a2.573,2.573,0,0,0,.48-.732,1.978,1.978,0,0,0,.133-.865,2.072,2.072,0,0,0-.53.786,2.327,2.327,0,0,0-.083.812m-2.52-.219a2.566,2.566,0,0,0,.742.466,1.977,1.977,0,0,0,.868.121,2.065,2.065,0,0,0-.8-.517,2.327,2.327,0,0,0-.814-.07m2.853,1.129a2.554,2.554,0,0,0,.742.465,1.949,1.949,0,0,0,.867.12,2.049,2.049,0,0,0-.8-.516,2.32,2.32,0,0,0-.813-.07m-.284,1.325s-.088.4-.137.679a.91.91,0,0,1-.207.444s-.232-.561-.28-.706a2.941,2.941,0,0,1-.082-.322,4.311,4.311,0,0,1-.4.6c-.123.117-.3.315-.3.315s-.007-.512-.007-.671a2.928,2.928,0,0,1,.055-.431s-.515.4-.623.464a3.229,3.229,0,0,1-.3.138s.26-.589.323-.734.17-.335.17-.335-.418.082-.664.116a2.369,2.369,0,0,1-.5.008s.479-.48.637-.6a2.857,2.857,0,0,1,.362-.232s-.561-.09-.733-.138a1.58,1.58,0,0,1-.391-.2s.452-.178.665-.234.4-.1.4-.1a3.239,3.239,0,0,1-.487-.24,4.42,4.42,0,0,1-.451-.459s.629-.02.78,0a1.79,1.79,0,0,1,.349.1,2.95,2.95,0,0,1-.411-.48c-.1-.178-.24-.541-.24-.541a6.716,6.716,0,0,1,.767.356c.184.123.439.308.439.308s-.137-.487-.184-.685-.09-.616-.09-.616.6.547.637.616.226.323.226.323.068-.371.137-.611a4.044,4.044,0,0,1,.2-.512,5.8,5.8,0,0,1,.26.623,4.379,4.379,0,0,1,.069.5,6.709,6.709,0,0,1,.377-.631,3.021,3.021,0,0,1,.342-.37,5.224,5.224,0,0,1,0,.59,3.266,3.266,0,0,0-.013.384s.287-.185.493-.3a2.527,2.527,0,0,1,.419-.185s-.247.479-.356.728a3.155,3.155,0,0,1-.289.493,1.142,1.142,0,0,1,.6-.213c.342-.013.637-.027.637-.027a2.089,2.089,0,0,1-.541.6,3.183,3.183,0,0,1-.514.267,7.794,7.794,0,0,1,.773.138c.247.067.541.178.541.178s-.549.26-.76.322-.247.047-.247.047a2.913,2.913,0,0,1,.5.356,1.637,1.637,0,0,1,.266.349s-.4.007-.6-.007a.958.958,0,0,1-.358-.1s.173.281.268.473.226.424.226.424-.506-.2-.7-.281-.364-.157-.364-.157a2.027,2.027,0,0,1,.124.624,3.674,3.674,0,0,0-.008.452,6.981,6.981,0,0,1-.534-.528c-.13-.164-.267-.369-.267-.369" transform="translate(-118.502 -3.878)" fill="#fff" fill-rule="evenodd"/>
    <path id="Trazado_3080" data-name="Trazado 3080" d="M443.015,396.912a.366.366,0,1,0,.366-.367.366.366,0,0,0-.366.367m.347-2.064a2.3,2.3,0,0,0-.167.777,1.786,1.786,0,0,0,.167.778,1.868,1.868,0,0,0,.194-.84,2.149,2.149,0,0,0-.194-.715m0,2.6a2.3,2.3,0,0,0-.167.778,1.785,1.785,0,0,0,.167.777,1.865,1.865,0,0,0,.194-.839,2.155,2.155,0,0,0-.194-.715m-2.064-.509a2.354,2.354,0,0,0,.779.168,1.8,1.8,0,0,0,.777-.168,1.868,1.868,0,0,0-.839-.193,2.108,2.108,0,0,0-.716.193m2.6,0a2.351,2.351,0,0,0,.778.168,1.8,1.8,0,0,0,.777-.168,1.863,1.863,0,0,0-.839-.193,2.1,2.1,0,0,0-.715.193m-1.961,1.564a2.319,2.319,0,0,0,.637-.477,1.783,1.783,0,0,0,.384-.7,1.874,1.874,0,0,0-.7.507,2.091,2.091,0,0,0-.325.667m1.863-2.032a2.311,2.311,0,0,0,.636-.476,1.78,1.78,0,0,0,.385-.7,1.872,1.872,0,0,0-.7.506,2.108,2.108,0,0,0-.323.667m-2.043-.959a2.342,2.342,0,0,0,.488.628,1.787,1.787,0,0,0,.7.371,1.874,1.874,0,0,0-.52-.687,2.1,2.1,0,0,0-.672-.313m2.021,1.846a2.34,2.34,0,0,0,.487.629,1.811,1.811,0,0,0,.7.372,1.862,1.862,0,0,0-.52-.687,2.11,2.11,0,0,0-.671-.314m-1.294-2.365a2.372,2.372,0,0,0,.176.774,1.817,1.817,0,0,0,.482.634,1.889,1.889,0,0,0-.181-.842,2.11,2.11,0,0,0-.478-.566m1.118,2.461a2.306,2.306,0,0,0,.177.776,1.788,1.788,0,0,0,.479.634,1.866,1.866,0,0,0-.179-.843,2.122,2.122,0,0,0-.478-.567m-2.177.359a2.355,2.355,0,0,0,.771-.19,1.8,1.8,0,0,0,.626-.493,1.883,1.883,0,0,0-.84.2,2.121,2.121,0,0,0-.558.488m2.509-1.142a2.338,2.338,0,0,0,.772-.19,1.791,1.791,0,0,0,.626-.491,1.869,1.869,0,0,0-.839.195,2.108,2.108,0,0,0-.559.487m-1.363,2.228a2.351,2.351,0,0,0,.437-.665,1.8,1.8,0,0,0,.121-.786,1.865,1.865,0,0,0-.481.715,2.124,2.124,0,0,0-.077.736m1.057-2.545a2.334,2.334,0,0,0,.434-.667,1.776,1.776,0,0,0,.123-.786,1.883,1.883,0,0,0-.482.715,2.136,2.136,0,0,0-.076.738m-2.287-.2a2.338,2.338,0,0,0,.672.423,1.8,1.8,0,0,0,.789.108,1.854,1.854,0,0,0-.722-.468,2.108,2.108,0,0,0-.739-.063m2.589,1.023a2.3,2.3,0,0,0,.673.425,1.774,1.774,0,0,0,.788.108,1.865,1.865,0,0,0-.723-.468,2.135,2.135,0,0,0-.738-.064m-.258,1.2s-.081.361-.123.617a.828.828,0,0,1-.187.4s-.211-.51-.255-.64a2.635,2.635,0,0,1-.075-.293,3.894,3.894,0,0,1-.36.541c-.113.106-.273.286-.273.286s-.007-.467-.007-.609a2.684,2.684,0,0,1,.049-.391s-.467.367-.566.423a2.835,2.835,0,0,1-.267.123s.236-.534.293-.664.155-.3.155-.3-.379.074-.6.1a2.085,2.085,0,0,1-.455.007s.435-.435.578-.547a2.79,2.79,0,0,1,.33-.212s-.51-.08-.665-.124a1.436,1.436,0,0,1-.354-.187s.41-.161.6-.211.361-.087.361-.087a2.994,2.994,0,0,1-.442-.217,3.943,3.943,0,0,1-.411-.417s.571-.019.709,0a1.523,1.523,0,0,1,.317.093,2.667,2.667,0,0,1-.373-.436c-.087-.16-.218-.49-.218-.49a5.935,5.935,0,0,1,.7.323c.167.111.4.279.4.279s-.125-.441-.169-.623-.079-.558-.079-.558.541.5.578.558.2.293.2.293.064-.335.126-.553a3.465,3.465,0,0,1,.18-.467,5.321,5.321,0,0,1,.236.566,3.867,3.867,0,0,1,.061.453,6.361,6.361,0,0,1,.343-.572,2.8,2.8,0,0,1,.31-.337,4.724,4.724,0,0,1,0,.535,2.8,2.8,0,0,0-.012.347s.261-.167.447-.273a2.337,2.337,0,0,1,.381-.169s-.224.436-.323.66a2.89,2.89,0,0,1-.261.447,1.03,1.03,0,0,1,.541-.193l.578-.025a1.916,1.916,0,0,1-.49.547,2.9,2.9,0,0,1-.467.243s.479.062.7.124.491.162.491.162-.5.236-.691.293-.224.043-.224.043a2.631,2.631,0,0,1,.453.323,1.48,1.48,0,0,1,.243.318s-.36.006-.546-.006a.87.87,0,0,1-.323-.088s.154.255.243.43.2.385.2.385-.46-.18-.64-.255-.331-.142-.331-.142a1.832,1.832,0,0,1,.113.565,3.034,3.034,0,0,0-.007.411,6.31,6.31,0,0,1-.484-.479c-.119-.149-.244-.337-.244-.337" transform="translate(-125.015 -39.626)" fill="#fff" fill-rule="evenodd"/>
    <path id="Trazado_3081" data-name="Trazado 3081" d="M457.905,365.265a.4.4,0,1,0,.4-.4.405.405,0,0,0-.4.4m.384-2.274a2.539,2.539,0,0,0-.184.856,1.994,1.994,0,0,0,.184.857,2.072,2.072,0,0,0,.213-.926,2.3,2.3,0,0,0-.213-.787m0,2.864a2.55,2.55,0,0,0-.184.856,1.985,1.985,0,0,0,.184.856,2.057,2.057,0,0,0,.213-.924,2.3,2.3,0,0,0-.213-.788m-2.273-.561a2.552,2.552,0,0,0,.856.184,1.965,1.965,0,0,0,.856-.184,2.046,2.046,0,0,0-.924-.212,2.317,2.317,0,0,0-.788.212m2.864,0a2.548,2.548,0,0,0,.857.184,1.971,1.971,0,0,0,.856-.184,2.055,2.055,0,0,0-.925-.212,2.311,2.311,0,0,0-.788.212m-2.16,1.723a2.589,2.589,0,0,0,.7-.525,1.949,1.949,0,0,0,.422-.768,2.05,2.05,0,0,0-.766.56,2.3,2.3,0,0,0-.356.734m2.051-2.238a2.568,2.568,0,0,0,.7-.524,1.967,1.967,0,0,0,.423-.767,2.047,2.047,0,0,0-.767.557,2.331,2.331,0,0,0-.358.735m-2.25-1.058a2.6,2.6,0,0,0,.538.693,1.99,1.99,0,0,0,.774.408,2.055,2.055,0,0,0-.572-.757,2.365,2.365,0,0,0-.741-.345m2.225,2.035a2.574,2.574,0,0,0,.537.692,1.977,1.977,0,0,0,.775.409,2.08,2.08,0,0,0-.571-.757,2.316,2.316,0,0,0-.741-.343m-1.423-2.606a2.544,2.544,0,0,0,.193.855,1.966,1.966,0,0,0,.53.7,2.068,2.068,0,0,0-.2-.928,2.334,2.334,0,0,0-.524-.624m1.23,2.712a2.6,2.6,0,0,0,.193.855,1.988,1.988,0,0,0,.531.7,2.068,2.068,0,0,0-.2-.928,2.323,2.323,0,0,0-.526-.625m-2.4.394a2.562,2.562,0,0,0,.85-.209,1.969,1.969,0,0,0,.688-.542,2.054,2.054,0,0,0-.924.214,2.326,2.326,0,0,0-.615.537M458.921,365a2.542,2.542,0,0,0,.85-.209,1.979,1.979,0,0,0,.69-.542,2.071,2.071,0,0,0-.926.216,2.311,2.311,0,0,0-.614.535m-1.5,2.456a2.56,2.56,0,0,0,.478-.732,1.992,1.992,0,0,0,.135-.867,2.063,2.063,0,0,0-.529.787,2.291,2.291,0,0,0-.084.812m1.162-2.8a2.551,2.551,0,0,0,.479-.734,1.948,1.948,0,0,0,.136-.865,2.049,2.049,0,0,0-.53.787,2.311,2.311,0,0,0-.084.812m-2.52-.22a2.594,2.594,0,0,0,.742.467,1.985,1.985,0,0,0,.868.119,2.049,2.049,0,0,0-.8-.517,2.334,2.334,0,0,0-.813-.069m2.853,1.128a2.557,2.557,0,0,0,.741.467,1.966,1.966,0,0,0,.868.119,2.053,2.053,0,0,0-.8-.516,2.311,2.311,0,0,0-.812-.07m-.284,1.324s-.09.4-.138.679a.9.9,0,0,1-.205.445s-.231-.561-.281-.7a3.294,3.294,0,0,1-.082-.323,4.283,4.283,0,0,1-.4.6c-.122.116-.3.315-.3.315s-.008-.514-.008-.672a2.871,2.871,0,0,1,.056-.431s-.515.4-.624.466a3.179,3.179,0,0,1-.3.137s.261-.59.322-.733.172-.335.172-.335-.418.082-.664.117a2.383,2.383,0,0,1-.5.007s.48-.48.637-.6a3.069,3.069,0,0,1,.364-.233s-.563-.088-.735-.136a1.611,1.611,0,0,1-.39-.206s.452-.178.665-.232.4-.1.4-.1a3.244,3.244,0,0,1-.486-.24,4.363,4.363,0,0,1-.453-.459s.631-.021.781,0a1.785,1.785,0,0,1,.351.1,2.926,2.926,0,0,1-.412-.479c-.1-.178-.24-.541-.24-.541a6.746,6.746,0,0,1,.767.357c.185.123.44.31.44.31s-.138-.488-.186-.685-.088-.618-.088-.618.6.549.637.618.226.321.226.321.067-.369.137-.609a3.8,3.8,0,0,1,.2-.514,5.806,5.806,0,0,1,.261.624,4.128,4.128,0,0,1,.067.5,6.861,6.861,0,0,1,.378-.629,3.007,3.007,0,0,1,.341-.37,4.787,4.787,0,0,1,0,.589,3.151,3.151,0,0,0-.011.384s.287-.185.493-.3a2.445,2.445,0,0,1,.419-.185s-.248.479-.357.727a3.275,3.275,0,0,1-.288.493,1.131,1.131,0,0,1,.6-.213c.343-.014.638-.028.638-.028a2.107,2.107,0,0,1-.542.6,3.18,3.18,0,0,1-.514.267,7.792,7.792,0,0,1,.774.138c.247.069.542.178.542.178s-.549.261-.761.323-.247.047-.247.047a2.887,2.887,0,0,1,.5.356,1.736,1.736,0,0,1,.268.35s-.4.008-.6-.007a.957.957,0,0,1-.356-.1s.172.281.267.473.226.424.226.424-.5-.2-.705-.279-.363-.158-.363-.158a2,2,0,0,1,.122.624,3.7,3.7,0,0,0-.007.452,7.151,7.151,0,0,1-.534-.528c-.13-.165-.267-.371-.267-.371" transform="translate(-130.853 -26.936)" fill="#fff" fill-rule="evenodd"/>
    <path id="Trazado_3082" data-name="Trazado 3082" d="M370.377,316.358a1.447,1.447,0,1,0,1.447-1.447,1.446,1.446,0,0,0-1.447,1.447m1.372-8.141a9.18,9.18,0,0,0-.661,3.066,7.075,7.075,0,0,0,.661,3.064,7.382,7.382,0,0,0,.761-3.31,8.312,8.312,0,0,0-.761-2.82m0,10.249a9.174,9.174,0,0,0-.661,3.065,7.076,7.076,0,0,0,.661,3.065,7.377,7.377,0,0,0,.761-3.31,8.311,8.311,0,0,0-.761-2.82m-8.135-2.005a9.221,9.221,0,0,0,3.065.661,7.064,7.064,0,0,0,3.065-.661,7.375,7.375,0,0,0-3.309-.761,8.312,8.312,0,0,0-2.821.761m10.249,0a9.22,9.22,0,0,0,3.064.661,7.064,7.064,0,0,0,3.066-.661,7.375,7.375,0,0,0-3.309-.761,8.31,8.31,0,0,0-2.821.761m-7.729,6.165a9.162,9.162,0,0,0,2.51-1.878A7.082,7.082,0,0,0,370.156,318a7.392,7.392,0,0,0-2.746,2,8.328,8.328,0,0,0-1.275,2.626m7.345-8.008a9.163,9.163,0,0,0,2.51-1.878,7.059,7.059,0,0,0,1.512-2.747,7.364,7.364,0,0,0-2.745,2,8.3,8.3,0,0,0-1.277,2.626m-8.051-3.783a9.168,9.168,0,0,0,1.921,2.478,7.072,7.072,0,0,0,2.774,1.463,7.376,7.376,0,0,0-2.046-2.711,8.312,8.312,0,0,0-2.649-1.23m7.961,7.278a9.2,9.2,0,0,0,1.922,2.477,7.06,7.06,0,0,0,2.774,1.462,7.378,7.378,0,0,0-2.047-2.709,8.331,8.331,0,0,0-2.649-1.23m-5.1-9.326a9.186,9.186,0,0,0,.7,3.058,7.049,7.049,0,0,0,1.9,2.5,7.379,7.379,0,0,0-.709-3.32,8.327,8.327,0,0,0-1.882-2.235m4.406,9.706a9.18,9.18,0,0,0,.7,3.057,7.066,7.066,0,0,0,1.894,2.5,7.377,7.377,0,0,0-.708-3.321,8.308,8.308,0,0,0-1.882-2.234m-8.581,1.411a9.19,9.19,0,0,0,3.045-.749,7.067,7.067,0,0,0,2.464-1.938,7.375,7.375,0,0,0-3.308.767,8.326,8.326,0,0,0-2.2,1.92m9.889-4.5a9.208,9.208,0,0,0,3.046-.749,7.066,7.066,0,0,0,2.464-1.938,7.373,7.373,0,0,0-3.307.767,8.336,8.336,0,0,0-2.2,1.92m-5.37,8.786a9.186,9.186,0,0,0,1.717-2.624,7.048,7.048,0,0,0,.479-3.1,7.377,7.377,0,0,0-1.895,2.818,8.336,8.336,0,0,0-.3,2.9m4.164-10.036a9.211,9.211,0,0,0,1.716-2.625,7.062,7.062,0,0,0,.481-3.1,7.372,7.372,0,0,0-1.9,2.817,8.323,8.323,0,0,0-.3,2.906m-9.015-.786a9.192,9.192,0,0,0,2.653,1.67,7.066,7.066,0,0,0,3.106.426,7.371,7.371,0,0,0-2.849-1.847,8.345,8.345,0,0,0-2.911-.249m10.206,4.037a9.179,9.179,0,0,0,2.653,1.67,7.057,7.057,0,0,0,3.1.426,7.347,7.347,0,0,0-2.849-1.846,8.3,8.3,0,0,0-2.909-.25m-1.017,4.741s-.319,1.423-.49,2.427a3.256,3.256,0,0,1-.736,1.595s-.834-2.011-1.005-2.526a10.768,10.768,0,0,1-.293-1.152,15.649,15.649,0,0,1-1.422,2.132c-.443.417-1.08,1.129-1.08,1.129s-.024-1.84-.024-2.4a10.581,10.581,0,0,1,.2-1.544s-1.839,1.446-2.232,1.666-1.053.491-1.053.491.931-2.108,1.153-2.624.612-1.2.612-1.2-1.5.3-2.379.417a8.411,8.411,0,0,1-1.789.025s1.717-1.717,2.281-2.159a10.489,10.489,0,0,1,1.3-.834s-2.012-.319-2.624-.49a5.715,5.715,0,0,1-1.4-.735s1.619-.637,2.378-.834,1.423-.343,1.423-.343a11.73,11.73,0,0,1-1.741-.859,15.634,15.634,0,0,1-1.619-1.643s2.256-.073,2.795,0a6.277,6.277,0,0,1,1.251.369,10.544,10.544,0,0,1-1.471-1.716c-.343-.638-.858-1.937-.858-1.937a24.416,24.416,0,0,1,2.747,1.274c.661.441,1.568,1.1,1.568,1.1s-.491-1.741-.662-2.452-.318-2.206-.318-2.206,2.132,1.961,2.28,2.206.809,1.152.809,1.152.245-1.324.49-2.182a14.329,14.329,0,0,1,.71-1.838,20.713,20.713,0,0,1,.932,2.231,15.146,15.146,0,0,1,.246,1.789,24.089,24.089,0,0,1,1.349-2.256,10.735,10.735,0,0,1,1.226-1.324,18.923,18.923,0,0,1,0,2.109,11.226,11.226,0,0,0-.049,1.374s1.031-.664,1.765-1.08a8.946,8.946,0,0,1,1.5-.661s-.883,1.716-1.276,2.6a11.584,11.584,0,0,1-1.03,1.765,4.062,4.062,0,0,1,2.132-.759c1.226-.049,2.281-.1,2.281-.1a7.469,7.469,0,0,1-1.937,2.158,11.377,11.377,0,0,1-1.839.956s1.888.245,2.771.49,1.937.639,1.937.639-1.963.931-2.721,1.151-.884.173-.884.173a10.213,10.213,0,0,1,1.792,1.275,6.064,6.064,0,0,1,.956,1.249s-1.422.025-2.159-.024a3.405,3.405,0,0,1-1.275-.343s.614,1,.956,1.692.809,1.521.809,1.521-1.814-.712-2.524-1.006-1.3-.564-1.3-.564a7.282,7.282,0,0,1,.441,2.232,12.149,12.149,0,0,0-.025,1.618,25.4,25.4,0,0,1-1.913-1.889c-.466-.588-.956-1.324-.956-1.324" transform="translate(-93.632 -4.642)" fill="#fff" fill-rule="evenodd"/>
    <path id="Trazado_3083" data-name="Trazado 3083" d="M525.528,421.826a1.447,1.447,0,1,0,1.446-1.447,1.446,1.446,0,0,0-1.446,1.447m1.372-8.141a9.192,9.192,0,0,0-.662,3.064,7.08,7.08,0,0,0,.662,3.066,7.383,7.383,0,0,0,.761-3.31,8.308,8.308,0,0,0-.761-2.82m0,10.248a9.2,9.2,0,0,0-.662,3.066,7.076,7.076,0,0,0,.662,3.064,7.376,7.376,0,0,0,.761-3.31,8.314,8.314,0,0,0-.761-2.82m-8.135-2.005a9.192,9.192,0,0,0,3.065.661,7.067,7.067,0,0,0,3.065-.661,7.383,7.383,0,0,0-3.31-.761,8.328,8.328,0,0,0-2.82.761m10.249,0a9.19,9.19,0,0,0,3.064.661,7.058,7.058,0,0,0,3.065-.661,7.374,7.374,0,0,0-3.308-.761,8.329,8.329,0,0,0-2.821.761m-7.73,6.165a9.166,9.166,0,0,0,2.51-1.878,7.061,7.061,0,0,0,1.512-2.747,7.376,7.376,0,0,0-2.745,2,8.312,8.312,0,0,0-1.277,2.626m7.346-8.007a9.169,9.169,0,0,0,2.509-1.878,7.07,7.07,0,0,0,1.512-2.747,7.37,7.37,0,0,0-2.745,2,8.326,8.326,0,0,0-1.275,2.627m-8.052-3.784a9.186,9.186,0,0,0,1.922,2.477,7.07,7.07,0,0,0,2.773,1.463,7.366,7.366,0,0,0-2.046-2.71,8.324,8.324,0,0,0-2.649-1.23m7.962,7.278a9.2,9.2,0,0,0,1.922,2.478,7.057,7.057,0,0,0,2.773,1.463,7.368,7.368,0,0,0-2.046-2.709,8.352,8.352,0,0,0-2.649-1.231m-5.1-9.326a9.183,9.183,0,0,0,.7,3.058,7.059,7.059,0,0,0,1.894,2.5,7.363,7.363,0,0,0-.709-3.321,8.306,8.306,0,0,0-1.881-2.235m4.406,9.706a9.2,9.2,0,0,0,.7,3.057,7.062,7.062,0,0,0,1.9,2.5,7.364,7.364,0,0,0-.709-3.321,8.311,8.311,0,0,0-1.881-2.234m-8.581,1.411a9.2,9.2,0,0,0,3.045-.749,7.087,7.087,0,0,0,2.464-1.939,7.392,7.392,0,0,0-3.309.767,8.305,8.305,0,0,0-2.2,1.92m9.888-4.5a9.18,9.18,0,0,0,3.045-.749,7.056,7.056,0,0,0,2.465-1.938,7.375,7.375,0,0,0-3.307.767,8.349,8.349,0,0,0-2.2,1.919m-5.37,8.787a9.164,9.164,0,0,0,1.717-2.624,7.061,7.061,0,0,0,.481-3.1,7.38,7.38,0,0,0-1.9,2.818,8.335,8.335,0,0,0-.3,2.905m4.165-10.036A9.213,9.213,0,0,0,529.667,417a7.08,7.08,0,0,0,.481-3.1,7.365,7.365,0,0,0-1.9,2.816,8.326,8.326,0,0,0-.3,2.906m-9.016-.787a9.215,9.215,0,0,0,2.653,1.67,7.064,7.064,0,0,0,3.106.426,7.365,7.365,0,0,0-2.849-1.847,8.3,8.3,0,0,0-2.911-.249m10.206,4.037a9.212,9.212,0,0,0,2.653,1.67,7.066,7.066,0,0,0,3.106.426,7.37,7.37,0,0,0-2.849-1.846,8.3,8.3,0,0,0-2.911-.25m-1.015,4.741s-.319,1.423-.491,2.428a3.248,3.248,0,0,1-.735,1.594s-.834-2.011-1.006-2.525a10.95,10.95,0,0,1-.294-1.152,15.586,15.586,0,0,1-1.422,2.132c-.441.417-1.08,1.129-1.08,1.129s-.023-1.839-.023-2.4a10.6,10.6,0,0,1,.2-1.545s-1.84,1.447-2.232,1.668-1.055.49-1.055.49.932-2.109,1.152-2.624.614-1.2.614-1.2-1.5.294-2.379.416a8.372,8.372,0,0,1-1.789.025s1.716-1.717,2.28-2.158a10.445,10.445,0,0,1,1.3-.834s-2.012-.319-2.624-.489a5.714,5.714,0,0,1-1.4-.735s1.618-.637,2.378-.834,1.422-.343,1.422-.343a11.662,11.662,0,0,1-1.74-.859,15.5,15.5,0,0,1-1.619-1.643s2.256-.073,2.795,0a6.264,6.264,0,0,1,1.251.369,10.439,10.439,0,0,1-1.471-1.717c-.343-.637-.859-1.937-.859-1.937a24.263,24.263,0,0,1,2.747,1.275c.662.44,1.569,1.1,1.569,1.1s-.491-1.741-.662-2.451-.318-2.207-.318-2.207,2.132,1.96,2.28,2.207.809,1.151.809,1.151.245-1.324.49-2.182a14.25,14.25,0,0,1,.711-1.838,20.938,20.938,0,0,1,.932,2.232,15.394,15.394,0,0,1,.246,1.789,24.019,24.019,0,0,1,1.349-2.255,10.644,10.644,0,0,1,1.225-1.325,18.631,18.631,0,0,1,0,2.11,11.332,11.332,0,0,0-.049,1.372s1.031-.661,1.766-1.079a8.973,8.973,0,0,1,1.5-.661s-.882,1.716-1.276,2.6a11.589,11.589,0,0,1-1.03,1.765,4.068,4.068,0,0,1,2.134-.761c1.226-.048,2.279-.1,2.279-.1a7.5,7.5,0,0,1-1.936,2.157,11.307,11.307,0,0,1-1.84.956s1.89.244,2.771.49,1.938.64,1.938.64-1.962.931-2.722,1.151-.883.172-.883.172a10.29,10.29,0,0,1,1.789,1.274,5.982,5.982,0,0,1,.956,1.25s-1.42.024-2.156-.025a3.387,3.387,0,0,1-1.276-.342s.614,1,.956,1.692.809,1.519.809,1.519-1.813-.71-2.525-1-1.3-.564-1.3-.564a7.243,7.243,0,0,1,.441,2.232,12.279,12.279,0,0,0-.024,1.618,25.256,25.256,0,0,1-1.913-1.888c-.465-.588-.956-1.325-.956-1.325" transform="translate(-155.349 -46.596)" fill="#fff" fill-rule="evenodd"/>
    <path id="Trazado_3084" data-name="Trazado 3084" d="M487.6,381.321a.734.734,0,1,0,.735-.735.734.734,0,0,0-.735.735m.7-4.134a4.633,4.633,0,0,0-.337,1.556,3.571,3.571,0,0,0,.337,1.556,3.734,3.734,0,0,0,.385-1.681,4.219,4.219,0,0,0-.385-1.431m0,5.2a4.638,4.638,0,0,0-.337,1.556,3.578,3.578,0,0,0,.337,1.557,3.736,3.736,0,0,0,.385-1.68,4.226,4.226,0,0,0-.385-1.433m-4.132-1.02a4.635,4.635,0,0,0,1.556.337,3.57,3.57,0,0,0,1.556-.337,3.751,3.751,0,0,0-1.681-.386,4.224,4.224,0,0,0-1.431.386m5.2,0a4.642,4.642,0,0,0,1.557.337,3.584,3.584,0,0,0,1.557-.337,3.748,3.748,0,0,0-1.681-.386,4.254,4.254,0,0,0-1.433.386M485.44,384.5a4.657,4.657,0,0,0,1.276-.954,3.588,3.588,0,0,0,.767-1.4,3.747,3.747,0,0,0-1.394,1.015,4.237,4.237,0,0,0-.649,1.334m3.731-4.066a4.68,4.68,0,0,0,1.274-.955,3.574,3.574,0,0,0,.767-1.4,3.748,3.748,0,0,0-1.393,1.015,4.242,4.242,0,0,0-.649,1.335m-4.089-1.922a4.688,4.688,0,0,0,.977,1.258,3.594,3.594,0,0,0,1.407.742,3.756,3.756,0,0,0-1.038-1.376,4.224,4.224,0,0,0-1.346-.624m4.043,3.7a4.668,4.668,0,0,0,.977,1.257,3.593,3.593,0,0,0,1.409.743,3.74,3.74,0,0,0-1.039-1.377,4.234,4.234,0,0,0-1.347-.624m-2.588-4.737a4.66,4.66,0,0,0,.353,1.552,3.581,3.581,0,0,0,.962,1.269,3.721,3.721,0,0,0-.36-1.686,4.223,4.223,0,0,0-.955-1.134m2.238,4.929a4.657,4.657,0,0,0,.354,1.553,3.583,3.583,0,0,0,.962,1.268,3.759,3.759,0,0,0-.36-1.686,4.231,4.231,0,0,0-.956-1.135m-4.358.716a4.649,4.649,0,0,0,1.546-.381,3.568,3.568,0,0,0,1.25-.983,3.741,3.741,0,0,0-1.68.389,4.23,4.23,0,0,0-1.117.975m5.022-2.285a4.7,4.7,0,0,0,1.548-.38,3.575,3.575,0,0,0,1.251-.985,3.75,3.75,0,0,0-1.68.39,4.243,4.243,0,0,0-1.119.975m-2.727,4.462a4.676,4.676,0,0,0,.871-1.333,3.6,3.6,0,0,0,.245-1.573,3.739,3.739,0,0,0-.963,1.431,4.212,4.212,0,0,0-.153,1.475m2.115-5.1a4.686,4.686,0,0,0,.872-1.333,3.57,3.57,0,0,0,.243-1.573,3.734,3.734,0,0,0-.962,1.431,4.213,4.213,0,0,0-.153,1.475m-4.579-.4a4.658,4.658,0,0,0,1.348.849,3.582,3.582,0,0,0,1.577.217,3.749,3.749,0,0,0-1.447-.939,4.226,4.226,0,0,0-1.478-.127m5.184,2.051a4.627,4.627,0,0,0,1.347.848,3.583,3.583,0,0,0,1.577.217,3.733,3.733,0,0,0-1.447-.938,4.241,4.241,0,0,0-1.477-.128m-.517,2.409s-.162.722-.249,1.233a1.656,1.656,0,0,1-.373.809s-.424-1.021-.511-1.282a5.622,5.622,0,0,1-.15-.586,7.9,7.9,0,0,1-.721,1.083c-.224.213-.549.573-.549.573s-.012-.934-.012-1.22a5.365,5.365,0,0,1,.1-.785s-.935.735-1.133.846a5.775,5.775,0,0,1-.535.249s.473-1.071.585-1.332.311-.611.311-.611-.759.149-1.207.212a4.294,4.294,0,0,1-.909.013s.871-.872,1.157-1.1a5.362,5.362,0,0,1,.661-.423s-1.022-.163-1.333-.25a2.9,2.9,0,0,1-.711-.373s.822-.323,1.209-.423.722-.175.722-.175a5.948,5.948,0,0,1-.885-.436,7.919,7.919,0,0,1-.821-.834s1.144-.038,1.419,0a3.206,3.206,0,0,1,.635.186,5.335,5.335,0,0,1-.746-.871c-.174-.324-.436-.984-.436-.984a12.276,12.276,0,0,1,1.4.648c.335.223.8.56.8.56s-.249-.885-.337-1.245-.161-1.121-.161-1.121,1.083,1,1.158,1.121.411.584.411.584.125-.672.248-1.108a7.444,7.444,0,0,1,.361-.933,10.33,10.33,0,0,1,.475,1.133,7.951,7.951,0,0,1,.123.909,12.665,12.665,0,0,1,.685-1.145,5.5,5.5,0,0,1,.623-.673,9.471,9.471,0,0,1,0,1.071,5.835,5.835,0,0,0-.025.7s.525-.335.9-.547a4.534,4.534,0,0,1,.761-.335s-.449.871-.647,1.32a5.912,5.912,0,0,1-.523.9,2.055,2.055,0,0,1,1.083-.386c.623-.025,1.158-.05,1.158-.05a3.8,3.8,0,0,1-.983,1.1,5.748,5.748,0,0,1-.935.485s.959.125,1.407.249.985.323.985.323-1,.473-1.383.585-.448.087-.448.087a5.237,5.237,0,0,1,.909.648,3.077,3.077,0,0,1,.484.635s-.721.012-1.095-.012a1.723,1.723,0,0,1-.647-.175s.312.511.485.86.411.771.411.771-.921-.36-1.282-.51-.66-.286-.66-.286a3.7,3.7,0,0,1,.224,1.133,5.99,5.99,0,0,0-.012.822,12.771,12.771,0,0,1-.973-.959c-.236-.3-.485-.672-.485-.672" transform="translate(-141.901 -32.422)" fill="#fff" fill-rule="evenodd"/>
    <path id="Trazado_3085" data-name="Trazado 3085" d="M257.647,385.226c-7.031.094-8.551,18.526-8.457,23.942s1.9,22.9,8.742,22.9c6.272-.1,5.607-19.571,5.511-24.132s.19-22.811-5.8-22.706m-91.315-4.941a67.72,67.72,0,0,0-.57,7.7c.1,2.47.475,6.84.475,6.84s-3.421-4.845-12.353-4.085-10.261,5.605-10.261,6.84,1.14,5.226,9.407,4.941,12.733-4.561,12.733-4.561a71.221,71.221,0,0,0-.19,7.886c.19,3.134.379,7.314.379,7.314a13.091,13.091,0,0,0-10.071-2.659c-6.176.855-11.878,3.135-12.544,10.735s7.688,10.755,13.588,10.545c13.4-.474,17.579-13.966,17.579-13.966h9.6s.19-23.751.094-29.168-.381-9.405-.381-9.405l17.2-.285s-4.845,14.06-5.511,27.078.762,24.322,5.037,24.606,10.424-5.987,13.112-15.3c3.9-13.491,2.185-27.457,2.185-27.457s4.371.1,7.127.1a71.175,71.175,0,0,0,7.791-.759S230,397.671,230,399.762s-.19,4.56,2.376,4.56,3.611-2.186,4.275-3.421,4.181-22.371,16.913-22.612c13.871-.262,14.634,11.78,14.634,11.78l10.928.19s-2.755,15.962-2.85,22.042.569,15.676,3.895,15.676,5.511-8.265,5.892-10.356,1.331-6.27,1.331-6.27l5.225,3.7s-1.5,11.458-5.985,16.911c-4.846,5.891-7.884,6.778-12.923,6.841-7.6.1-8.078-7.222-8.078-7.222s-3.99,7.031-12.068,6.936c-18.813-.094-18.053-28.787-18.053-28.787s-6.366,9.881-10.832,9.785-6.177-4.561-6.177-4.561-7.506,24.8-23.755,25.462c-12.257.666-10.737-18.241-10.737-18.241l-5.035.1S177.26,439,151.7,439.57c-19.576.381-25.275-12.636-25.086-17.291-.095-11.4,15.488-15.2,15.488-15.2s-8.647-2.755-9.311-11.212,13.494-16.421,24.23-16.245a71.794,71.794,0,0,1,9.311.664" transform="translate(0 -33.216)" fill="#fff" fill-rule="evenodd"/>
    <path id="Trazado_3086" data-name="Trazado 3086" d="M133.211,366.324h3.681v-.21h-.709v-3.737h.843c.8.034,1.12.7,1.12,1.409h.211v-3.017h-.211c0,1.086-.51,1.408-1.531,1.4h-.432v-3.437h1.209a1.805,1.805,0,0,1,1.8,1.807h.21v-2.019h-6.187v.212h.709v7.386h-.709Z" transform="translate(-2.626 -25.352)" fill="#fff" fill-rule="evenodd"/>
    <path id="Trazado_3087" data-name="Trazado 3087" d="M144.275,366.324h6.165v-2.34h-.211c0,1.087-.742,2.13-2.473,2.13h-.51v-7.386h.71v-.212h-3.681v.212h.709v7.386h-.709Z" transform="translate(-7.027 -25.352)" fill="#fff" fill-rule="evenodd"/>
    <path id="Trazado_3088" data-name="Trazado 3088" d="M163.426,362.289a3.919,3.919,0,1,0-3.915,4.1,3.9,3.9,0,0,0,3.915-4.1m-5.367,0c0-2.973.132-3.893,1.452-3.893s1.453.92,1.453,3.893-.133,3.893-1.453,3.893-1.452-.921-1.452-3.893" transform="translate(-11.531 -25.22)" fill="#fff" fill-rule="evenodd"/>
    <path id="Trazado_3089" data-name="Trazado 3089" d="M169.479,366.324h3.682v-.21h-.709v-3.738h.8c.7,0,.888.511.888,1.4v1.175a1.461,1.461,0,0,0,1.6,1.509c.711,0,1.2-.134,1.475-.787l-.143-.111c-.089.211-.233.488-.478.488-.221,0-.322-.166-.322-.721v-1.641c0-1.086-1.142-1.352-1.973-1.408v-.022c.986-.111,2.051-.7,2.051-1.809,0-1.341-1.3-1.929-2.484-1.929h-4.38v.211h.71v7.386h-.71Zm2.973-7.6h.621c.754,0,1.075.476,1.075,1.84,0,1.1-.276,1.6-1.209,1.6h-.487Z" transform="translate(-17.053 -25.353)" fill="#fff" fill-rule="evenodd"/>
    <path id="Trazado_3090" data-name="Trazado 3090" d="M182.7,366.323h3.681v-.21h-.709v-7.386h.709v-.212H182.7v.212h.708v7.386H182.7Z" transform="translate(-22.312 -25.352)" fill="#fff" fill-rule="evenodd"/>
    <path id="Trazado_3091" data-name="Trazado 3091" d="M195.067,358.385h-.211c0,.222-.067.4-.332.4-.31,0-.9-.6-1.9-.6a2.432,2.432,0,0,0-2.529,2.55c0,3.678,4.513,1.494,4.513,3.843a1.7,1.7,0,0,1-1.829,1.6,2.672,2.672,0,0,1-2.351-2.385h-.212v2.4h.212a.376.376,0,0,1,.377-.4c.488,0,.865.6,2.04.6a2.671,2.671,0,0,0,2.872-2.85c0-3.657-4.513-1.613-4.513-3.779a1.324,1.324,0,0,1,1.363-1.367,2.455,2.455,0,0,1,2.284,2.118h.211Z" transform="translate(-25.255 -25.22)" fill="#fff" fill-rule="evenodd"/>
    <path id="Trazado_3092" data-name="Trazado 3092" d="M202.219,366.324H205.9v-.21h-.709v-7.386a2.094,2.094,0,0,1,2.107,2.2h.211v-2.408h-6.9v2.408h.211a2.094,2.094,0,0,1,2.106-2.2v7.386h-.709Z" transform="translate(-29.437 -25.352)" fill="#fff" fill-rule="evenodd"/>
    <path id="Trazado_3093" data-name="Trazado 3093" d="M212.686,366.324h6.565v-2.34h-.21c-.212,1.254-.677,2.13-2.561,2.13h-.822v-3.737h.932c.943,0,1.2.653,1.2,1.419H218v-3.027h-.21c0,.765-.278,1.4-1.154,1.4h-.976v-3.437h.976c1.664,0,2.063.83,2.163,1.807h.21v-2.019h-6.32v.212h.709v7.386h-.709Z" transform="translate(-34.24 -25.352)" fill="#fff" fill-rule="evenodd"/>
    <path id="Trazado_3094" data-name="Trazado 3094" d="M224.784,366.324h3.683v-.21h-.711v-3.738h.8c.7,0,.888.511.888,1.4v1.175a1.461,1.461,0,0,0,1.6,1.509c.709,0,1.2-.134,1.475-.787l-.145-.111c-.089.211-.232.488-.478.488-.22,0-.321-.166-.321-.721v-1.641c0-1.086-1.142-1.352-1.974-1.408v-.022c.987-.111,2.052-.7,2.052-1.809,0-1.341-1.3-1.929-2.485-1.929h-4.38v.211h.711v7.386h-.711Zm2.973-7.6h.621c.754,0,1.076.476,1.076,1.84,0,1.1-.276,1.6-1.209,1.6h-.488Z" transform="translate(-39.053 -25.353)" fill="#fff" fill-rule="evenodd"/>
    <path id="Trazado_3095" data-name="Trazado 3095" d="M239.158,356.1h.255l1.442-1.121c.266-.2.631-.4.631-.72,0-.377-.32-.422-.676-.422-.6,0-.765.255-.987.788ZM238,364.464h3.682v-.21h-.709v-7.386h.709v-.212H238v.212h.709v7.386H238Z" transform="translate(-44.311 -23.492)" fill="#fff" fill-rule="evenodd"/>
    <path id="Trazado_3096" data-name="Trazado 3096" d="M248.134,363.552h-1.763l.854-2.551h.023Zm-3.392,2.771h1.685v-.21h-.155c-.3,0-.532-.078-.532-.377a1.657,1.657,0,0,1,.077-.488l.489-1.486h1.907l.833,2.352h-.5v.21h3.238v-.21h-.421l-2.684-7.6h-.887l-2.3,6.887c-.132.4-.31.71-.653.71h-.1Z" transform="translate(-46.992 -25.352)" fill="#fff" fill-rule="evenodd"/>
    <path id="Trazado_3097" data-name="Trazado 3097" d="M264.028,366.324h3.682v-.21H267V362.6l1.463-3.15c.222-.476.4-.72.754-.72h.089v-.212h-1.8v.212h.133c.3,0,.531.089.531.388a2,2,0,0,1-.166.731l-1.121,2.418-1.663-3.537h.477v-.212h-3.3v.212h.41l1.929,4.115v3.271h-.709Z" transform="translate(-54.015 -25.352)" fill="#fff" fill-rule="evenodd"/>
    <path id="Trazado_3098" data-name="Trazado 3098" d="M280.4,358.729h.708v5.633c0,.687.411,1.165.411,1.719,0,.577-.332.821-.677.821-.22,0-.4-.055-.4-.145,0-.166.532-.132.532-.8a.676.676,0,0,0-.709-.664.729.729,0,0,0-.732.754c0,.8.754,1.065,1.486,1.065a2.12,2.12,0,0,0,2.351-2.406v-5.977h.709v-.211H280.4Z" transform="translate(-60.833 -25.353)" fill="#fff" fill-rule="evenodd"/>
    <path id="Trazado_3099" data-name="Trazado 3099" d="M291.217,363.552h-1.764l.855-2.551h.022Zm-3.395,2.771h1.687v-.21h-.157c-.3,0-.532-.078-.532-.377a1.7,1.7,0,0,1,.078-.488l.488-1.486h1.908l.832,2.352h-.5v.21h3.238v-.21h-.422l-2.683-7.6h-.888l-2.3,6.887c-.134.4-.311.71-.655.71h-.1Z" transform="translate(-64.128 -25.352)" fill="#fff" fill-rule="evenodd"/>
    <path id="Trazado_3100" data-name="Trazado 3100" d="M300.033,366.324h3.681v-.21H303v-3.738h.8c.7,0,.887.511.887,1.4v1.175a1.461,1.461,0,0,0,1.6,1.509c.709,0,1.2-.134,1.475-.787l-.144-.111c-.088.211-.233.488-.478.488-.222,0-.322-.166-.322-.721v-1.641c0-1.086-1.142-1.352-1.973-1.408v-.022c.987-.111,2.05-.7,2.05-1.809,0-1.341-1.3-1.929-2.483-1.929h-4.38v.211h.71v7.386h-.71Zm2.971-7.6h.621c.755,0,1.076.476,1.076,1.84,0,1.1-.278,1.6-1.21,1.6H303Z" transform="translate(-68.986 -25.353)" fill="#fff" fill-rule="evenodd"/>
    <path id="Trazado_3101" data-name="Trazado 3101" d="M316.114,358.728h.443c1.886,0,2.173,1.453,2.173,3.7,0,1.631-.087,3.682-2.239,3.682h-.377Zm-2.972,7.6h3.8c2.219,0,4.181-1.286,4.181-3.937a3.734,3.734,0,0,0-4.026-3.871h-3.958v.212h.708v7.386h-.708Z" transform="translate(-74.2 -25.352)" fill="#fff" fill-rule="evenodd"/>
    <path id="Trazado_3102" data-name="Trazado 3102" d="M327.393,366.323h3.681v-.21h-.708v-7.386h.708v-.212h-3.681v.212h.709v7.386h-.709Z" transform="translate(-79.869 -25.352)" fill="#fff" fill-rule="evenodd"/>
    <path id="Trazado_3103" data-name="Trazado 3103" d="M334.114,366.324h2.051v-.21c-.632,0-.853-.078-.853-.788v-5.278h.022l4.326,6.276h1.4v-6.865a.648.648,0,0,1,.73-.731v-.212h-1.819v.212c.732,0,.811.443.811.731v4.669h-.023l-3.859-5.612h-2.806v.212h.289l.655.942v5.655c0,.7-.346.788-.921.788Z" transform="translate(-82.534 -25.352)" fill="#fff" fill-rule="evenodd"/>
    <path id="Trazado_3104" data-name="Trazado 3104" d="M347.35,366.324h6.565v-2.34H353.7c-.211,1.254-.677,2.13-2.562,2.13h-.821v-3.737h.931c.943,0,1.2.653,1.2,1.419h.211v-3.027h-.211c0,.765-.276,1.4-1.153,1.4h-.976v-3.437h.976c1.664,0,2.063.83,2.163,1.807h.21v-2.019h-6.32v.212h.708v7.386h-.708Z" transform="translate(-87.808 -25.352)" fill="#fff" fill-rule="evenodd"/>
    <path id="Trazado_3105" data-name="Trazado 3105" d="M359.446,366.324h3.683v-.21h-.711v-3.738h.8c.7,0,.888.511.888,1.4v1.175a1.461,1.461,0,0,0,1.6,1.509c.709,0,1.2-.134,1.475-.787l-.145-.111c-.09.211-.232.488-.478.488-.222,0-.321-.166-.321-.721v-1.641c0-1.086-1.142-1.352-1.974-1.408v-.022c.987-.111,2.052-.7,2.052-1.809,0-1.341-1.3-1.929-2.484-1.929h-4.382v.211h.712v7.386h-.712Zm2.973-7.6h.621c.755,0,1.077.476,1.077,1.84,0,1.1-.278,1.6-1.21,1.6h-.488Z" transform="translate(-92.619 -25.353)" fill="#fff" fill-rule="evenodd"/>
    <path id="Trazado_3106" data-name="Trazado 3106" d="M373.821,356.1h.256l1.44-1.121c.267-.2.632-.4.632-.72,0-.377-.321-.422-.676-.422-.6,0-.765.255-.987.788Zm-1.153,8.361h3.681v-.21h-.71v-7.386h.71v-.212h-3.681v.212h.709v7.386h-.709Z" transform="translate(-97.879 -23.492)" fill="#fff" fill-rule="evenodd"/>
    <path id="Trazado_3107" data-name="Trazado 3107" d="M382.8,363.552h-1.763l.854-2.551h.023Zm-3.393,2.771h1.686v-.21h-.157c-.3,0-.532-.078-.532-.377a1.7,1.7,0,0,1,.077-.488l.489-1.486h1.908l.832,2.352h-.5v.21h3.239v-.21h-.421l-2.684-7.6h-.887l-2.3,6.887c-.133.4-.31.71-.653.71h-.1Z" transform="translate(-100.558 -25.352)" fill="#fff" fill-rule="evenodd"/>
  </g>
</svg>
